<?xml version="1.0" encoding="UTF-8"?>
<svg xmlns="http://www.w3.org/2000/svg" width="210.0mm" height="297.0mm" viewBox="0 0 210.0 297.0">
  <title>Plotterbench test card 00 — SMOKE</title>
  <desc>Plotter QA diagnostic. Units = mm. Plot identically on every machine; grade by physical measurement.</desc>
  <g fill="none" stroke="#000" stroke-width="0.3" stroke-linecap="round" stroke-linejoin="round">
    <text x="105.000" y="14.000" font-family="monospace" font-size="5" fill="#000" stroke="none" text-anchor="middle">PLOTTERBENCH TEST CARD 00 — SMOKE</text>
    <text x="105.000" y="20.000" font-family="monospace" font-size="3.0" fill="#000" stroke="none" text-anchor="middle">connect · pen up/down · move · rough scale · orientation — run first, ~30 s</text>
    <line x1="55.000" y1="45.000" x2="155.000" y2="45.000"/>
    <line x1="55.000" y1="42.000" x2="55.000" y2="48.000"/>
    <line x1="155.000" y1="42.000" x2="155.000" y2="48.000"/>
    <text x="105.000" y="40.000" font-family="monospace" font-size="3.5" fill="#000" stroke="none" text-anchor="middle">100 mm</text>
    <circle cx="105.000" cy="105.000" r="25.000"/>
    <text x="105.000" y="105.000" font-family="monospace" font-size="3" fill="#000" stroke="none" text-anchor="middle">d50</text>
    <line x1="105.000" y1="175.000" x2="105.000" y2="153.000"/>
    <line x1="105.000" y1="153.000" x2="102.000" y2="157.000"/>
    <line x1="105.000" y1="153.000" x2="108.000" y2="157.000"/>
    <text x="105.000" y="182.000" font-family="monospace" font-size="4" fill="#000" stroke="none" text-anchor="middle">TOP</text>
    <line x1="4.000" y1="4.000" x2="12.000" y2="4.000"/>
    <line x1="4.000" y1="4.000" x2="4.000" y2="12.000"/>
    <line x1="206.000" y1="4.000" x2="198.000" y2="4.000"/>
    <line x1="206.000" y1="4.000" x2="206.000" y2="12.000"/>
    <line x1="4.000" y1="293.000" x2="12.000" y2="293.000"/>
    <line x1="4.000" y1="293.000" x2="4.000" y2="285.000"/>
    <line x1="206.000" y1="293.000" x2="198.000" y2="293.000"/>
    <line x1="206.000" y1="293.000" x2="206.000" y2="285.000"/>
  </g>
</svg>
