<?xml version="1.0" encoding="UTF-8"?>
<svg xmlns="http://www.w3.org/2000/svg" width="210.0mm" height="297.0mm" viewBox="0 0 210.0 297.0">
  <title>Plotterbench test card 03 — CURVE FIDELITY</title>
  <desc>Plotter QA diagnostic. Units = mm. Plot identically on every machine; grade by physical measurement.</desc>
  <g fill="none" stroke="#000" stroke-width="0.3" stroke-linecap="round" stroke-linejoin="round">
    <text x="105.000" y="14.000" font-family="monospace" font-size="5" fill="#000" stroke="none" text-anchor="middle">PLOTTERBENCH TEST CARD 03 — CURVE FIDELITY</text>
    <text x="105.000" y="20.000" font-family="monospace" font-size="3.0" fill="#000" stroke="none" text-anchor="middle">flattening tolerance — facets reveal too-coarse tolerance</text>
    <circle cx="105.000" cy="80.000" r="50.000"/>
    <circle cx="105.000" cy="80.000" r="40.000"/>
    <circle cx="105.000" cy="80.000" r="30.000"/>
    <circle cx="105.000" cy="80.000" r="20.000"/>
    <circle cx="105.000" cy="80.000" r="12.000"/>
    <circle cx="105.000" cy="80.000" r="6.000"/>
    <circle cx="105.000" cy="80.000" r="3.000"/>
    <circle cx="105.000" cy="80.000" r="1.500"/>
    <text x="105.000" y="138.000" font-family="monospace" font-size="3.0" fill="#000" stroke="none" text-anchor="middle">concentric circles d100..d3 — all must be smooth</text>
    <path d="M 25.0 175.0 C 44.8 151.0 64.6 199.0 85.0 175.0"/>
    <path d="M 93.0 175.0 C 106.2 159.0 119.4 191.0 133.0 175.0"/>
    <path d="M 141.0 175.0 C 148.9 165.4 156.8 184.6 165.0 175.0"/>
    <path d="M 173.0 175.0 C 177.0 170.2 180.9 179.8 185.0 175.0"/>
    <text x="25.000" y="187.000" font-family="monospace" font-size="3.0" fill="#000" stroke="none" text-anchor="start">cubic-bezier S-curves (tests C command)</text>
    <path d="M 155.0 215.0 A 4.0 4.0 0 0 1 159.0 211.0"/>
    <path d="M 155.0 215.0 A 8.0 8.0 0 0 1 163.0 207.0"/>
    <path d="M 155.0 215.0 A 14.0 14.0 0 0 1 169.0 201.0"/>
    <path d="M 155.0 215.0 A 22.0 22.0 0 0 1 177.0 193.0"/>
    <path d="M 155.0 215.0 A 32.0 32.0 0 0 1 187.0 183.0"/>
    <text x="155.000" y="223.000" font-family="monospace" font-size="2.8" fill="#000" stroke="none" text-anchor="middle">arc fan (A cmd)</text>
  </g>
</svg>
