<?xml version="1.0" encoding="UTF-8"?>
<svg xmlns="http://www.w3.org/2000/svg" width="210.0mm" height="297.0mm" viewBox="0 0 210.0 297.0">
  <title>Plotterbench test card 04 — PEN LIFT COMB</title>
  <desc>Plotter QA diagnostic. Units = mm. Plot identically on every machine; grade by physical measurement.</desc>
  <g fill="none" stroke="#000" stroke-width="0.3" stroke-linecap="round" stroke-linejoin="round">
    <text x="105.000" y="14.000" font-family="monospace" font-size="5" fill="#000" stroke="none" text-anchor="middle">PLOTTERBENCH TEST CARD 04 — PEN-LIFT COMB</text>
    <text x="105.000" y="20.000" font-family="monospace" font-size="3.0" fill="#000" stroke="none" text-anchor="middle">pen up/down between disjoint paths · servo timing</text>
    <line x1="20.000" y1="40.000" x2="20.000" y2="45.000"/>
    <line x1="27.391" y1="40.000" x2="27.391" y2="45.000"/>
    <line x1="34.783" y1="40.000" x2="34.783" y2="45.000"/>
    <line x1="42.174" y1="40.000" x2="42.174" y2="45.000"/>
    <line x1="49.565" y1="40.000" x2="49.565" y2="45.000"/>
    <line x1="56.957" y1="40.000" x2="56.957" y2="45.000"/>
    <line x1="64.348" y1="40.000" x2="64.348" y2="45.000"/>
    <line x1="71.739" y1="40.000" x2="71.739" y2="45.000"/>
    <line x1="79.130" y1="40.000" x2="79.130" y2="45.000"/>
    <line x1="86.522" y1="40.000" x2="86.522" y2="45.000"/>
    <line x1="93.913" y1="40.000" x2="93.913" y2="45.000"/>
    <line x1="101.304" y1="40.000" x2="101.304" y2="45.000"/>
    <line x1="108.696" y1="40.000" x2="108.696" y2="45.000"/>
    <line x1="116.087" y1="40.000" x2="116.087" y2="45.000"/>
    <line x1="123.478" y1="40.000" x2="123.478" y2="45.000"/>
    <line x1="130.870" y1="40.000" x2="130.870" y2="45.000"/>
    <line x1="138.261" y1="40.000" x2="138.261" y2="45.000"/>
    <line x1="145.652" y1="40.000" x2="145.652" y2="45.000"/>
    <line x1="153.043" y1="40.000" x2="153.043" y2="45.000"/>
    <line x1="160.435" y1="40.000" x2="160.435" y2="45.000"/>
    <line x1="167.826" y1="40.000" x2="167.826" y2="45.000"/>
    <line x1="175.217" y1="40.000" x2="175.217" y2="45.000"/>
    <line x1="182.609" y1="40.000" x2="182.609" y2="45.000"/>
    <line x1="190.000" y1="40.000" x2="190.000" y2="45.000"/>
    <line x1="20.000" y1="49.000" x2="20.000" y2="54.000"/>
    <line x1="27.391" y1="49.000" x2="27.391" y2="54.000"/>
    <line x1="34.783" y1="49.000" x2="34.783" y2="54.000"/>
    <line x1="42.174" y1="49.000" x2="42.174" y2="54.000"/>
    <line x1="49.565" y1="49.000" x2="49.565" y2="54.000"/>
    <line x1="56.957" y1="49.000" x2="56.957" y2="54.000"/>
    <line x1="64.348" y1="49.000" x2="64.348" y2="54.000"/>
    <line x1="71.739" y1="49.000" x2="71.739" y2="54.000"/>
    <line x1="79.130" y1="49.000" x2="79.130" y2="54.000"/>
    <line x1="86.522" y1="49.000" x2="86.522" y2="54.000"/>
    <line x1="93.913" y1="49.000" x2="93.913" y2="54.000"/>
    <line x1="101.304" y1="49.000" x2="101.304" y2="54.000"/>
    <line x1="108.696" y1="49.000" x2="108.696" y2="54.000"/>
    <line x1="116.087" y1="49.000" x2="116.087" y2="54.000"/>
    <line x1="123.478" y1="49.000" x2="123.478" y2="54.000"/>
    <line x1="130.870" y1="49.000" x2="130.870" y2="54.000"/>
    <line x1="138.261" y1="49.000" x2="138.261" y2="54.000"/>
    <line x1="145.652" y1="49.000" x2="145.652" y2="54.000"/>
    <line x1="153.043" y1="49.000" x2="153.043" y2="54.000"/>
    <line x1="160.435" y1="49.000" x2="160.435" y2="54.000"/>
    <line x1="167.826" y1="49.000" x2="167.826" y2="54.000"/>
    <line x1="175.217" y1="49.000" x2="175.217" y2="54.000"/>
    <line x1="182.609" y1="49.000" x2="182.609" y2="54.000"/>
    <line x1="190.000" y1="49.000" x2="190.000" y2="54.000"/>
    <line x1="20.000" y1="58.000" x2="20.000" y2="63.000"/>
    <line x1="27.391" y1="58.000" x2="27.391" y2="63.000"/>
    <line x1="34.783" y1="58.000" x2="34.783" y2="63.000"/>
    <line x1="42.174" y1="58.000" x2="42.174" y2="63.000"/>
    <line x1="49.565" y1="58.000" x2="49.565" y2="63.000"/>
    <line x1="56.957" y1="58.000" x2="56.957" y2="63.000"/>
    <line x1="64.348" y1="58.000" x2="64.348" y2="63.000"/>
    <line x1="71.739" y1="58.000" x2="71.739" y2="63.000"/>
    <line x1="79.130" y1="58.000" x2="79.130" y2="63.000"/>
    <line x1="86.522" y1="58.000" x2="86.522" y2="63.000"/>
    <line x1="93.913" y1="58.000" x2="93.913" y2="63.000"/>
    <line x1="101.304" y1="58.000" x2="101.304" y2="63.000"/>
    <line x1="108.696" y1="58.000" x2="108.696" y2="63.000"/>
    <line x1="116.087" y1="58.000" x2="116.087" y2="63.000"/>
    <line x1="123.478" y1="58.000" x2="123.478" y2="63.000"/>
    <line x1="130.870" y1="58.000" x2="130.870" y2="63.000"/>
    <line x1="138.261" y1="58.000" x2="138.261" y2="63.000"/>
    <line x1="145.652" y1="58.000" x2="145.652" y2="63.000"/>
    <line x1="153.043" y1="58.000" x2="153.043" y2="63.000"/>
    <line x1="160.435" y1="58.000" x2="160.435" y2="63.000"/>
    <line x1="167.826" y1="58.000" x2="167.826" y2="63.000"/>
    <line x1="175.217" y1="58.000" x2="175.217" y2="63.000"/>
    <line x1="182.609" y1="58.000" x2="182.609" y2="63.000"/>
    <line x1="190.000" y1="58.000" x2="190.000" y2="63.000"/>
    <line x1="20.000" y1="67.000" x2="20.000" y2="72.000"/>
    <line x1="27.391" y1="67.000" x2="27.391" y2="72.000"/>
    <line x1="34.783" y1="67.000" x2="34.783" y2="72.000"/>
    <line x1="42.174" y1="67.000" x2="42.174" y2="72.000"/>
    <line x1="49.565" y1="67.000" x2="49.565" y2="72.000"/>
    <line x1="56.957" y1="67.000" x2="56.957" y2="72.000"/>
    <line x1="64.348" y1="67.000" x2="64.348" y2="72.000"/>
    <line x1="71.739" y1="67.000" x2="71.739" y2="72.000"/>
    <line x1="79.130" y1="67.000" x2="79.130" y2="72.000"/>
    <line x1="86.522" y1="67.000" x2="86.522" y2="72.000"/>
    <line x1="93.913" y1="67.000" x2="93.913" y2="72.000"/>
    <line x1="101.304" y1="67.000" x2="101.304" y2="72.000"/>
    <line x1="108.696" y1="67.000" x2="108.696" y2="72.000"/>
    <line x1="116.087" y1="67.000" x2="116.087" y2="72.000"/>
    <line x1="123.478" y1="67.000" x2="123.478" y2="72.000"/>
    <line x1="130.870" y1="67.000" x2="130.870" y2="72.000"/>
    <line x1="138.261" y1="67.000" x2="138.261" y2="72.000"/>
    <line x1="145.652" y1="67.000" x2="145.652" y2="72.000"/>
    <line x1="153.043" y1="67.000" x2="153.043" y2="72.000"/>
    <line x1="160.435" y1="67.000" x2="160.435" y2="72.000"/>
    <line x1="167.826" y1="67.000" x2="167.826" y2="72.000"/>
    <line x1="175.217" y1="67.000" x2="175.217" y2="72.000"/>
    <line x1="182.609" y1="67.000" x2="182.609" y2="72.000"/>
    <line x1="190.000" y1="67.000" x2="190.000" y2="72.000"/>
    <line x1="20.000" y1="76.000" x2="20.000" y2="81.000"/>
    <line x1="27.391" y1="76.000" x2="27.391" y2="81.000"/>
    <line x1="34.783" y1="76.000" x2="34.783" y2="81.000"/>
    <line x1="42.174" y1="76.000" x2="42.174" y2="81.000"/>
    <line x1="49.565" y1="76.000" x2="49.565" y2="81.000"/>
    <line x1="56.957" y1="76.000" x2="56.957" y2="81.000"/>
    <line x1="64.348" y1="76.000" x2="64.348" y2="81.000"/>
    <line x1="71.739" y1="76.000" x2="71.739" y2="81.000"/>
    <line x1="79.130" y1="76.000" x2="79.130" y2="81.000"/>
    <line x1="86.522" y1="76.000" x2="86.522" y2="81.000"/>
    <line x1="93.913" y1="76.000" x2="93.913" y2="81.000"/>
    <line x1="101.304" y1="76.000" x2="101.304" y2="81.000"/>
    <line x1="108.696" y1="76.000" x2="108.696" y2="81.000"/>
    <line x1="116.087" y1="76.000" x2="116.087" y2="81.000"/>
    <line x1="123.478" y1="76.000" x2="123.478" y2="81.000"/>
    <line x1="130.870" y1="76.000" x2="130.870" y2="81.000"/>
    <line x1="138.261" y1="76.000" x2="138.261" y2="81.000"/>
    <line x1="145.652" y1="76.000" x2="145.652" y2="81.000"/>
    <line x1="153.043" y1="76.000" x2="153.043" y2="81.000"/>
    <line x1="160.435" y1="76.000" x2="160.435" y2="81.000"/>
    <line x1="167.826" y1="76.000" x2="167.826" y2="81.000"/>
    <line x1="175.217" y1="76.000" x2="175.217" y2="81.000"/>
    <line x1="182.609" y1="76.000" x2="182.609" y2="81.000"/>
    <line x1="190.000" y1="76.000" x2="190.000" y2="81.000"/>
    <line x1="20.000" y1="85.000" x2="20.000" y2="90.000"/>
    <line x1="27.391" y1="85.000" x2="27.391" y2="90.000"/>
    <line x1="34.783" y1="85.000" x2="34.783" y2="90.000"/>
    <line x1="42.174" y1="85.000" x2="42.174" y2="90.000"/>
    <line x1="49.565" y1="85.000" x2="49.565" y2="90.000"/>
    <line x1="56.957" y1="85.000" x2="56.957" y2="90.000"/>
    <line x1="64.348" y1="85.000" x2="64.348" y2="90.000"/>
    <line x1="71.739" y1="85.000" x2="71.739" y2="90.000"/>
    <line x1="79.130" y1="85.000" x2="79.130" y2="90.000"/>
    <line x1="86.522" y1="85.000" x2="86.522" y2="90.000"/>
    <line x1="93.913" y1="85.000" x2="93.913" y2="90.000"/>
    <line x1="101.304" y1="85.000" x2="101.304" y2="90.000"/>
    <line x1="108.696" y1="85.000" x2="108.696" y2="90.000"/>
    <line x1="116.087" y1="85.000" x2="116.087" y2="90.000"/>
    <line x1="123.478" y1="85.000" x2="123.478" y2="90.000"/>
    <line x1="130.870" y1="85.000" x2="130.870" y2="90.000"/>
    <line x1="138.261" y1="85.000" x2="138.261" y2="90.000"/>
    <line x1="145.652" y1="85.000" x2="145.652" y2="90.000"/>
    <line x1="153.043" y1="85.000" x2="153.043" y2="90.000"/>
    <line x1="160.435" y1="85.000" x2="160.435" y2="90.000"/>
    <line x1="167.826" y1="85.000" x2="167.826" y2="90.000"/>
    <line x1="175.217" y1="85.000" x2="175.217" y2="90.000"/>
    <line x1="182.609" y1="85.000" x2="182.609" y2="90.000"/>
    <line x1="190.000" y1="85.000" x2="190.000" y2="90.000"/>
    <line x1="20.000" y1="94.000" x2="20.000" y2="99.000"/>
    <line x1="27.391" y1="94.000" x2="27.391" y2="99.000"/>
    <line x1="34.783" y1="94.000" x2="34.783" y2="99.000"/>
    <line x1="42.174" y1="94.000" x2="42.174" y2="99.000"/>
    <line x1="49.565" y1="94.000" x2="49.565" y2="99.000"/>
    <line x1="56.957" y1="94.000" x2="56.957" y2="99.000"/>
    <line x1="64.348" y1="94.000" x2="64.348" y2="99.000"/>
    <line x1="71.739" y1="94.000" x2="71.739" y2="99.000"/>
    <line x1="79.130" y1="94.000" x2="79.130" y2="99.000"/>
    <line x1="86.522" y1="94.000" x2="86.522" y2="99.000"/>
    <line x1="93.913" y1="94.000" x2="93.913" y2="99.000"/>
    <line x1="101.304" y1="94.000" x2="101.304" y2="99.000"/>
    <line x1="108.696" y1="94.000" x2="108.696" y2="99.000"/>
    <line x1="116.087" y1="94.000" x2="116.087" y2="99.000"/>
    <line x1="123.478" y1="94.000" x2="123.478" y2="99.000"/>
    <line x1="130.870" y1="94.000" x2="130.870" y2="99.000"/>
    <line x1="138.261" y1="94.000" x2="138.261" y2="99.000"/>
    <line x1="145.652" y1="94.000" x2="145.652" y2="99.000"/>
    <line x1="153.043" y1="94.000" x2="153.043" y2="99.000"/>
    <line x1="160.435" y1="94.000" x2="160.435" y2="99.000"/>
    <line x1="167.826" y1="94.000" x2="167.826" y2="99.000"/>
    <line x1="175.217" y1="94.000" x2="175.217" y2="99.000"/>
    <line x1="182.609" y1="94.000" x2="182.609" y2="99.000"/>
    <line x1="190.000" y1="94.000" x2="190.000" y2="99.000"/>
    <line x1="20.000" y1="103.000" x2="20.000" y2="108.000"/>
    <line x1="27.391" y1="103.000" x2="27.391" y2="108.000"/>
    <line x1="34.783" y1="103.000" x2="34.783" y2="108.000"/>
    <line x1="42.174" y1="103.000" x2="42.174" y2="108.000"/>
    <line x1="49.565" y1="103.000" x2="49.565" y2="108.000"/>
    <line x1="56.957" y1="103.000" x2="56.957" y2="108.000"/>
    <line x1="64.348" y1="103.000" x2="64.348" y2="108.000"/>
    <line x1="71.739" y1="103.000" x2="71.739" y2="108.000"/>
    <line x1="79.130" y1="103.000" x2="79.130" y2="108.000"/>
    <line x1="86.522" y1="103.000" x2="86.522" y2="108.000"/>
    <line x1="93.913" y1="103.000" x2="93.913" y2="108.000"/>
    <line x1="101.304" y1="103.000" x2="101.304" y2="108.000"/>
    <line x1="108.696" y1="103.000" x2="108.696" y2="108.000"/>
    <line x1="116.087" y1="103.000" x2="116.087" y2="108.000"/>
    <line x1="123.478" y1="103.000" x2="123.478" y2="108.000"/>
    <line x1="130.870" y1="103.000" x2="130.870" y2="108.000"/>
    <line x1="138.261" y1="103.000" x2="138.261" y2="108.000"/>
    <line x1="145.652" y1="103.000" x2="145.652" y2="108.000"/>
    <line x1="153.043" y1="103.000" x2="153.043" y2="108.000"/>
    <line x1="160.435" y1="103.000" x2="160.435" y2="108.000"/>
    <line x1="167.826" y1="103.000" x2="167.826" y2="108.000"/>
    <line x1="175.217" y1="103.000" x2="175.217" y2="108.000"/>
    <line x1="182.609" y1="103.000" x2="182.609" y2="108.000"/>
    <line x1="190.000" y1="103.000" x2="190.000" y2="108.000"/>
    <line x1="20.000" y1="112.000" x2="20.000" y2="117.000"/>
    <line x1="27.391" y1="112.000" x2="27.391" y2="117.000"/>
    <line x1="34.783" y1="112.000" x2="34.783" y2="117.000"/>
    <line x1="42.174" y1="112.000" x2="42.174" y2="117.000"/>
    <line x1="49.565" y1="112.000" x2="49.565" y2="117.000"/>
    <line x1="56.957" y1="112.000" x2="56.957" y2="117.000"/>
    <line x1="64.348" y1="112.000" x2="64.348" y2="117.000"/>
    <line x1="71.739" y1="112.000" x2="71.739" y2="117.000"/>
    <line x1="79.130" y1="112.000" x2="79.130" y2="117.000"/>
    <line x1="86.522" y1="112.000" x2="86.522" y2="117.000"/>
    <line x1="93.913" y1="112.000" x2="93.913" y2="117.000"/>
    <line x1="101.304" y1="112.000" x2="101.304" y2="117.000"/>
    <line x1="108.696" y1="112.000" x2="108.696" y2="117.000"/>
    <line x1="116.087" y1="112.000" x2="116.087" y2="117.000"/>
    <line x1="123.478" y1="112.000" x2="123.478" y2="117.000"/>
    <line x1="130.870" y1="112.000" x2="130.870" y2="117.000"/>
    <line x1="138.261" y1="112.000" x2="138.261" y2="117.000"/>
    <line x1="145.652" y1="112.000" x2="145.652" y2="117.000"/>
    <line x1="153.043" y1="112.000" x2="153.043" y2="117.000"/>
    <line x1="160.435" y1="112.000" x2="160.435" y2="117.000"/>
    <line x1="167.826" y1="112.000" x2="167.826" y2="117.000"/>
    <line x1="175.217" y1="112.000" x2="175.217" y2="117.000"/>
    <line x1="182.609" y1="112.000" x2="182.609" y2="117.000"/>
    <line x1="190.000" y1="112.000" x2="190.000" y2="117.000"/>
    <line x1="20.000" y1="121.000" x2="20.000" y2="126.000"/>
    <line x1="27.391" y1="121.000" x2="27.391" y2="126.000"/>
    <line x1="34.783" y1="121.000" x2="34.783" y2="126.000"/>
    <line x1="42.174" y1="121.000" x2="42.174" y2="126.000"/>
    <line x1="49.565" y1="121.000" x2="49.565" y2="126.000"/>
    <line x1="56.957" y1="121.000" x2="56.957" y2="126.000"/>
    <line x1="64.348" y1="121.000" x2="64.348" y2="126.000"/>
    <line x1="71.739" y1="121.000" x2="71.739" y2="126.000"/>
    <line x1="79.130" y1="121.000" x2="79.130" y2="126.000"/>
    <line x1="86.522" y1="121.000" x2="86.522" y2="126.000"/>
    <line x1="93.913" y1="121.000" x2="93.913" y2="126.000"/>
    <line x1="101.304" y1="121.000" x2="101.304" y2="126.000"/>
    <line x1="108.696" y1="121.000" x2="108.696" y2="126.000"/>
    <line x1="116.087" y1="121.000" x2="116.087" y2="126.000"/>
    <line x1="123.478" y1="121.000" x2="123.478" y2="126.000"/>
    <line x1="130.870" y1="121.000" x2="130.870" y2="126.000"/>
    <line x1="138.261" y1="121.000" x2="138.261" y2="126.000"/>
    <line x1="145.652" y1="121.000" x2="145.652" y2="126.000"/>
    <line x1="153.043" y1="121.000" x2="153.043" y2="126.000"/>
    <line x1="160.435" y1="121.000" x2="160.435" y2="126.000"/>
    <line x1="167.826" y1="121.000" x2="167.826" y2="126.000"/>
    <line x1="175.217" y1="121.000" x2="175.217" y2="126.000"/>
    <line x1="182.609" y1="121.000" x2="182.609" y2="126.000"/>
    <line x1="190.000" y1="121.000" x2="190.000" y2="126.000"/>
    <text x="105.000" y="136.000" font-family="monospace" font-size="3.0" fill="#000" stroke="none" text-anchor="middle">240 separate strokes — each needs a clean pen lift</text>
    <line x1="20.000" y1="148.000" x2="20.400" y2="148.000"/>
    <line x1="22.881" y1="148.000" x2="23.281" y2="148.000"/>
    <line x1="25.763" y1="148.000" x2="26.163" y2="148.000"/>
    <line x1="28.644" y1="148.000" x2="29.044" y2="148.000"/>
    <line x1="31.525" y1="148.000" x2="31.925" y2="148.000"/>
    <line x1="34.407" y1="148.000" x2="34.807" y2="148.000"/>
    <line x1="37.288" y1="148.000" x2="37.688" y2="148.000"/>
    <line x1="40.169" y1="148.000" x2="40.569" y2="148.000"/>
    <line x1="43.051" y1="148.000" x2="43.451" y2="148.000"/>
    <line x1="45.932" y1="148.000" x2="46.332" y2="148.000"/>
    <line x1="48.814" y1="148.000" x2="49.214" y2="148.000"/>
    <line x1="51.695" y1="148.000" x2="52.095" y2="148.000"/>
    <line x1="54.576" y1="148.000" x2="54.976" y2="148.000"/>
    <line x1="57.458" y1="148.000" x2="57.858" y2="148.000"/>
    <line x1="60.339" y1="148.000" x2="60.739" y2="148.000"/>
    <line x1="63.220" y1="148.000" x2="63.620" y2="148.000"/>
    <line x1="66.102" y1="148.000" x2="66.502" y2="148.000"/>
    <line x1="68.983" y1="148.000" x2="69.383" y2="148.000"/>
    <line x1="71.864" y1="148.000" x2="72.264" y2="148.000"/>
    <line x1="74.746" y1="148.000" x2="75.146" y2="148.000"/>
    <line x1="77.627" y1="148.000" x2="78.027" y2="148.000"/>
    <line x1="80.508" y1="148.000" x2="80.908" y2="148.000"/>
    <line x1="83.390" y1="148.000" x2="83.790" y2="148.000"/>
    <line x1="86.271" y1="148.000" x2="86.671" y2="148.000"/>
    <line x1="89.153" y1="148.000" x2="89.553" y2="148.000"/>
    <line x1="92.034" y1="148.000" x2="92.434" y2="148.000"/>
    <line x1="94.915" y1="148.000" x2="95.315" y2="148.000"/>
    <line x1="97.797" y1="148.000" x2="98.197" y2="148.000"/>
    <line x1="100.678" y1="148.000" x2="101.078" y2="148.000"/>
    <line x1="103.559" y1="148.000" x2="103.959" y2="148.000"/>
    <line x1="106.441" y1="148.000" x2="106.841" y2="148.000"/>
    <line x1="109.322" y1="148.000" x2="109.722" y2="148.000"/>
    <line x1="112.203" y1="148.000" x2="112.603" y2="148.000"/>
    <line x1="115.085" y1="148.000" x2="115.485" y2="148.000"/>
    <line x1="117.966" y1="148.000" x2="118.366" y2="148.000"/>
    <line x1="120.847" y1="148.000" x2="121.247" y2="148.000"/>
    <line x1="123.729" y1="148.000" x2="124.129" y2="148.000"/>
    <line x1="126.610" y1="148.000" x2="127.010" y2="148.000"/>
    <line x1="129.492" y1="148.000" x2="129.892" y2="148.000"/>
    <line x1="132.373" y1="148.000" x2="132.773" y2="148.000"/>
    <line x1="135.254" y1="148.000" x2="135.654" y2="148.000"/>
    <line x1="138.136" y1="148.000" x2="138.536" y2="148.000"/>
    <line x1="141.017" y1="148.000" x2="141.417" y2="148.000"/>
    <line x1="143.898" y1="148.000" x2="144.298" y2="148.000"/>
    <line x1="146.780" y1="148.000" x2="147.180" y2="148.000"/>
    <line x1="149.661" y1="148.000" x2="150.061" y2="148.000"/>
    <line x1="152.542" y1="148.000" x2="152.942" y2="148.000"/>
    <line x1="155.424" y1="148.000" x2="155.824" y2="148.000"/>
    <line x1="158.305" y1="148.000" x2="158.705" y2="148.000"/>
    <line x1="161.186" y1="148.000" x2="161.586" y2="148.000"/>
    <line x1="164.068" y1="148.000" x2="164.468" y2="148.000"/>
    <line x1="166.949" y1="148.000" x2="167.349" y2="148.000"/>
    <line x1="169.831" y1="148.000" x2="170.231" y2="148.000"/>
    <line x1="172.712" y1="148.000" x2="173.112" y2="148.000"/>
    <line x1="175.593" y1="148.000" x2="175.993" y2="148.000"/>
    <line x1="178.475" y1="148.000" x2="178.875" y2="148.000"/>
    <line x1="181.356" y1="148.000" x2="181.756" y2="148.000"/>
    <line x1="184.237" y1="148.000" x2="184.637" y2="148.000"/>
    <line x1="187.119" y1="148.000" x2="187.519" y2="148.000"/>
    <line x1="190.000" y1="148.000" x2="190.400" y2="148.000"/>
    <text x="105.000" y="154.000" font-family="monospace" font-size="3.0" fill="#000" stroke="none" text-anchor="middle">dot row — fast pen toggling; look for missing/ghost dots</text>
    <line x1="20.000" y1="170.000" x2="190.000" y2="170.000"/>
    <line x1="25.000" y1="162.000" x2="33.000" y2="162.000"/>
    <line x1="39.000" y1="162.000" x2="47.000" y2="162.000"/>
    <line x1="53.000" y1="162.000" x2="61.000" y2="162.000"/>
    <line x1="67.000" y1="162.000" x2="75.000" y2="162.000"/>
    <line x1="81.000" y1="162.000" x2="89.000" y2="162.000"/>
    <line x1="95.000" y1="162.000" x2="103.000" y2="162.000"/>
    <line x1="109.000" y1="162.000" x2="117.000" y2="162.000"/>
    <line x1="123.000" y1="162.000" x2="131.000" y2="162.000"/>
    <line x1="137.000" y1="162.000" x2="145.000" y2="162.000"/>
    <line x1="151.000" y1="162.000" x2="159.000" y2="162.000"/>
    <line x1="165.000" y1="162.000" x2="173.000" y2="162.000"/>
    <line x1="179.000" y1="162.000" x2="187.000" y2="162.000"/>
    <text x="105.000" y="176.000" font-family="monospace" font-size="2.8" fill="#000" stroke="none" text-anchor="middle">stroke starts must touch their intended start (late drop = gap; late lift = drag)</text>
  </g>
</svg>
